<svg width="22" height="22" viewBox="0 0 22 22" fill="none" xmlns="http://www.w3.org/2000/svg">
<path d="M5.36242 15.675C6.14159 15.0792 7.01242 14.6096 7.97492 14.2661C8.93742 13.9227 9.94575 13.7507 10.9999 13.75C12.0541 13.7494 13.0624 13.9215 14.0249 14.2661C14.9874 14.6108 15.8583 15.0804 16.6374 15.675C17.1721 15.0487 17.5886 14.3382 17.8868 13.5438C18.1851 12.7493 18.3339 11.9014 18.3333 11C18.3333 8.9681 17.6192 7.23773 16.191 5.80896C14.7628 4.38018 13.0325 3.6661 10.9999 3.66671C8.96736 3.66732 7.237 4.38171 5.80884 5.80987C4.38067 7.23804 3.66659 8.9681 3.66659 11C3.66659 11.9014 3.8157 12.7493 4.11392 13.5438C4.41214 14.3382 4.82831 15.0487 5.36242 15.675ZM10.9999 11.9167C10.0985 11.9167 9.33831 11.6075 8.71925 10.989C8.1002 10.3706 7.79098 9.61037 7.79159 8.70837C7.7922 7.80637 8.10173 7.04615 8.72017 6.42771C9.33861 5.80926 10.0985 5.50004 10.9999 5.50004C11.9013 5.50004 12.6615 5.80957 13.2806 6.42862C13.8996 7.04768 14.2089 7.8076 14.2083 8.70837C14.2076 9.60915 13.8984 10.3694 13.2806 10.989C12.6628 11.6087 11.9025 11.9179 10.9999 11.9167ZM10.9999 20.1667C9.73186 20.1667 8.5402 19.9259 7.42492 19.4444C6.30964 18.9628 5.3395 18.3098 4.5145 17.4855C3.6895 16.6611 3.03653 15.6909 2.55559 14.575C2.07464 13.4592 1.83386 12.2675 1.83325 11C1.83264 9.7326 2.07342 8.54093 2.55559 7.42504C3.03775 6.30915 3.69073 5.33901 4.5145 4.51462C5.33828 3.69024 6.30842 3.03726 7.42492 2.55571C8.54142 2.07415 9.73309 1.83337 10.9999 1.83337C12.2668 1.83337 13.4584 2.07415 14.5749 2.55571C15.6914 3.03726 16.6616 3.69024 17.4853 4.51462C18.3091 5.33901 18.9624 6.30915 19.4452 7.42504C19.9279 8.54093 20.1684 9.7326 20.1666 11C20.1648 12.2675 19.924 13.4592 19.4443 14.575C18.9645 15.6909 18.3116 16.6611 17.4853 17.4855C16.6591 18.3098 15.689 18.9631 14.5749 19.4453C13.4609 19.9275 12.2692 20.1679 10.9999 20.1667Z" fill="black"/>
</svg>
