<svg width="24" height="24" viewBox="0 0 24 24" fill="none" xmlns="http://www.w3.org/2000/svg">
<path d="M4 6.63302C4.14 6.57636 4.30767 6.51602 4.503 6.45202C5.47252 6.14685 6.4836 5.99436 7.5 6.00002C8.5164 5.99436 9.52748 6.14685 10.497 6.45202C10.6923 6.51602 10.86 6.57636 11 6.63302V17.513C9.86574 17.1671 8.68582 16.9942 7.5 17C6.04 17 4.851 17.248 4 17.513V6.63302ZM12 4.88502C11.7101 4.75714 11.4137 4.64465 11.112 4.54802C9.94375 4.17895 8.72515 3.99407 7.5 4.00002C5.974 4.00002 4.745 4.27102 3.888 4.54802C3.54689 4.65765 3.21263 4.78755 2.887 4.93702C2.76603 4.99304 2.64697 5.05307 2.53 5.11702L2.505 5.13102L2.496 5.13602L2.493 5.13802C2.491 5.14002 2.245 5.28502 2.49 5.14002C2.34072 5.22853 2.21705 5.35436 2.13114 5.50515C2.04522 5.65593 2.00003 5.82648 2 6.00002V19C2.00003 19.1765 2.04678 19.3499 2.13549 19.5025C2.22421 19.6551 2.35173 19.7814 2.5051 19.8688C2.65847 19.9562 2.83224 20.0014 3.00873 19.9998C3.18523 19.9983 3.35818 19.95 3.51 19.86L3.505 19.863L3.508 19.862L3.509 19.861L3.546 19.841C3.58333 19.821 3.644 19.791 3.728 19.751C3.898 19.673 4.158 19.563 4.503 19.451C5.47257 19.1462 6.48366 18.994 7.5 19C8.51634 18.994 9.52743 19.1462 10.497 19.451C10.761 19.5356 11.0198 19.6358 11.272 19.751C11.3475 19.786 11.4218 19.8234 11.495 19.863M11.495 19.863L11.493 19.862L11.492 19.861C11.806 20.046 12.196 20.046 12.51 19.861L12.547 19.841C12.5843 19.821 12.645 19.791 12.729 19.751C12.9812 19.6358 13.24 19.5356 13.504 19.451C14.4732 19.1463 15.484 18.9941 16.5 19C17.5163 18.994 18.5274 19.1462 19.497 19.451C19.761 19.5356 20.0198 19.6358 20.272 19.751C20.3461 19.7854 20.4191 19.8221 20.491 19.861C20.6429 19.9508 20.8158 19.9989 20.9922 20.0002C21.1687 20.0016 21.3423 19.9563 21.4956 19.8688C21.6488 19.7814 21.7762 19.6549 21.8648 19.5024C21.9534 19.3498 22 19.1765 22 19V6.00002C22 5.82648 21.9548 5.65593 21.8689 5.50515C21.783 5.35436 21.6593 5.22853 21.51 5.14002L21.508 5.13902L21.504 5.13602L21.494 5.13102L21.47 5.11702C21.353 5.05307 21.234 4.99304 21.113 4.93702C20.7877 4.78758 20.4538 4.65769 20.113 4.54802C18.9444 4.17885 17.7255 3.99397 16.5 4.00002C14.975 4.00002 13.745 4.27102 12.888 4.54802C12.5863 4.64465 12.2899 4.75714 12 4.88502M20 6.63302V17.513C18.8657 17.1671 17.6858 16.9942 16.5 17C15.04 17 13.851 17.248 13 17.513V6.63302C13.14 6.57636 13.3077 6.51602 13.503 6.45202C14.4725 6.14685 15.4836 5.99436 16.5 6.00002C17.5164 5.99436 18.5275 6.14685 19.497 6.45202C19.6923 6.51602 19.86 6.57636 20 6.63302ZM20.49 6.86102L20.495 6.86302H20.494L20.49 6.86102ZM20.491 19.861L20.494 19.863L20.492 19.861" fill="black"/>
</svg>
