<svg width="24" height="24" viewBox="0 0 24 24" fill="none" xmlns="http://www.w3.org/2000/svg">
<path d="M8 18H9.5V16H11.5V14.5H9.5V12.5H8V14.5H6V16H8V18ZM13 17.25H18V15.75H13V17.25ZM13 14.75H18V13.25H13V14.75ZM14.1 10.95L15.5 9.55L16.9 10.95L17.95 9.9L16.55 8.45L17.95 7.05L16.9 6L15.5 7.4L14.1 6L13.05 7.05L14.45 8.45L13.05 9.9L14.1 10.95ZM6.25 9.2H11.25V7.7H6.25V9.2ZM5 21C4.45 21 3.979 20.8043 3.587 20.413C3.195 20.0217 2.99934 19.5507 3 19V5C3 4.45 3.196 3.97933 3.588 3.588C3.98 3.19667 4.45067 3.00067 5 3H19C19.55 3 20.021 3.196 20.413 3.588C20.805 3.98 21.0007 4.45067 21 5V19C21 19.55 20.8043 20.021 20.413 20.413C20.0217 20.805 19.5507 21.0007 19 21H5ZM5 19H19V5H5V19Z" fill="black"/>
</svg>
