<svg width="14" height="18" viewBox="0 0 14 18" fill="none" xmlns="http://www.w3.org/2000/svg">
<path d="M2.25 0C1.00898 0 0 1.00898 0 2.25V15.75C0 16.991 1.00898 18 2.25 18H11.25C12.491 18 13.5 16.991 13.5 15.75V2.25C13.5 1.00898 12.491 0 11.25 0H2.25ZM3.375 2.25H10.125C10.7473 2.25 11.25 2.75273 11.25 3.375V4.5C11.25 5.12227 10.7473 5.625 10.125 5.625H3.375C2.75273 5.625 2.25 5.12227 2.25 4.5V3.375C2.25 2.75273 2.75273 2.25 3.375 2.25ZM4.5 7.875C4.5 8.17337 4.38147 8.45952 4.1705 8.67049C3.95952 8.88147 3.67337 9 3.375 9C3.07663 9 2.79048 8.88147 2.5795 8.67049C2.36853 8.45952 2.25 8.17337 2.25 7.875C2.25 7.57663 2.36853 7.29048 2.5795 7.07951C2.79048 6.86853 3.07663 6.75 3.375 6.75C3.67337 6.75 3.95952 6.86853 4.1705 7.07951C4.38147 7.29048 4.5 7.57663 4.5 7.875ZM3.375 12.375C3.07663 12.375 2.79048 12.2565 2.5795 12.0455C2.36853 11.8345 2.25 11.5484 2.25 11.25C2.25 10.9516 2.36853 10.6655 2.5795 10.4545C2.79048 10.2435 3.07663 10.125 3.375 10.125C3.67337 10.125 3.95952 10.2435 4.1705 10.4545C4.38147 10.6655 4.5 10.9516 4.5 11.25C4.5 11.5484 4.38147 11.8345 4.1705 12.0455C3.95952 12.2565 3.67337 12.375 3.375 12.375ZM2.25 14.625C2.25 14.0027 2.75273 13.5 3.375 13.5H6.75C7.37227 13.5 7.875 14.0027 7.875 14.625C7.875 15.2473 7.37227 15.75 6.75 15.75H3.375C2.75273 15.75 2.25 15.2473 2.25 14.625ZM6.75 9C6.45163 9 6.16548 8.88147 5.95451 8.67049C5.74353 8.45952 5.625 8.17337 5.625 7.875C5.625 7.57663 5.74353 7.29048 5.95451 7.07951C6.16548 6.86853 6.45163 6.75 6.75 6.75C7.04837 6.75 7.33452 6.86853 7.54549 7.07951C7.75647 7.29048 7.875 7.57663 7.875 7.875C7.875 8.17337 7.75647 8.45952 7.54549 8.67049C7.33452 8.88147 7.04837 9 6.75 9ZM7.875 11.25C7.875 11.5484 7.75647 11.8345 7.54549 12.0455C7.33452 12.2565 7.04837 12.375 6.75 12.375C6.45163 12.375 6.16548 12.2565 5.95451 12.0455C5.74353 11.8345 5.625 11.5484 5.625 11.25C5.625 10.9516 5.74353 10.6655 5.95451 10.4545C6.16548 10.2435 6.45163 10.125 6.75 10.125C7.04837 10.125 7.33452 10.2435 7.54549 10.4545C7.75647 10.6655 7.875 10.9516 7.875 11.25ZM10.125 9C9.82663 9 9.54048 8.88147 9.32951 8.67049C9.11853 8.45952 9 8.17337 9 7.875C9 7.57663 9.11853 7.29048 9.32951 7.07951C9.54048 6.86853 9.82663 6.75 10.125 6.75C10.4234 6.75 10.7095 6.86853 10.9205 7.07951C11.1315 7.29048 11.25 7.57663 11.25 7.875C11.25 8.17337 11.1315 8.45952 10.9205 8.67049C10.7095 8.88147 10.4234 9 10.125 9ZM11.25 11.25C11.25 11.5484 11.1315 11.8345 10.9205 12.0455C10.7095 12.2565 10.4234 12.375 10.125 12.375C9.82663 12.375 9.54048 12.2565 9.32951 12.0455C9.11853 11.8345 9 11.5484 9 11.25C9 10.9516 9.11853 10.6655 9.32951 10.4545C9.54048 10.2435 9.82663 10.125 10.125 10.125C10.4234 10.125 10.7095 10.2435 10.9205 10.4545C11.1315 10.6655 11.25 10.9516 11.25 11.25ZM10.125 15.75C9.82663 15.75 9.54048 15.6315 9.32951 15.4205C9.11853 15.2095 9 14.9234 9 14.625C9 14.3266 9.11853 14.0405 9.32951 13.8295C9.54048 13.6185 9.82663 13.5 10.125 13.5C10.4234 13.5 10.7095 13.6185 10.9205 13.8295C11.1315 14.0405 11.25 14.3266 11.25 14.625C11.25 14.9234 11.1315 15.2095 10.9205 15.4205C10.7095 15.6315 10.4234 15.75 10.125 15.75Z" fill="white"/>
</svg>
