<svg width="12" height="16" viewBox="0 0 12 16" fill="none" xmlns="http://www.w3.org/2000/svg">
<path d="M7 0V4C7 4.5625 7.4375 5 8 5H12V14C12 15.125 11.0938 16 10 16H2C0.875 16 0 15.125 0 14V2C0 0.90625 0.875 0 2 0H7ZM2.5 7C1.78125 7 1.25 7.5625 1.25 8.25V10.75C1.25 11.4688 1.78125 12 2.5 12H3C3.6875 12 4.25 11.4688 4.25 10.75V10.5C4.25 10.25 4 10 3.75 10C3.46875 10 3.25 10.25 3.25 10.5V10.75C3.25 10.9062 3.125 11 3 11H2.5C2.34375 11 2.25 10.9062 2.25 10.75V8.25C2.25 8.125 2.34375 8 2.5 8H3C3.125 8 3.25 8.125 3.25 8.25V8.5C3.25 8.78125 3.46875 9 3.75 9C4 9 4.25 8.78125 4.25 8.5V8.25C4.25 7.5625 3.6875 7 3 7H2.5ZM5.46875 9.71875L6.25 10.1875C6.40625 10.25 6.5 10.4062 6.5 10.5625C6.5 10.8125 6.28125 11 6.03125 11H5.25C4.96875 11 4.75 11.25 4.75 11.5C4.75 11.7812 4.96875 12 5.25 12H6.03125C6.84375 12 7.5 11.375 7.5 10.5625C7.5 10.0312 7.21875 9.5625 6.75 9.3125L5.96875 8.84375C5.8125 8.78125 5.75 8.625 5.75 8.46875C5.75 8.21875 5.9375 8 6.1875 8H6.75C7 8 7.25 7.78125 7.25 7.5C7.25 7.25 7 7 6.75 7H6.1875C5.375 7 4.75 7.65625 4.75 8.46875C4.75 8.96875 5 9.46875 5.46875 9.71875ZM8.75 7.5C8.75 7.25 8.5 7 8.25 7C7.96875 7 7.75 7.25 7.75 7.5V8.5C7.75 9.59375 8.0625 10.6562 8.65625 11.5625L8.8125 11.7812C8.90625 11.9375 9.0625 12 9.25 12C9.40625 12 9.5625 11.9375 9.65625 11.7812L9.8125 11.5625C10.4062 10.6562 10.75 9.59375 10.75 8.5V7.5C10.75 7.25 10.5 7 10.25 7C9.96875 7 9.75 7.25 9.75 7.5V8.5C9.75 9.21875 9.5625 9.9375 9.25 10.5625C8.90625 9.9375 8.75 9.21875 8.75 8.5V7.5ZM8 0L12 4H8V0Z" fill="white"/>
</svg>
