<svg width="48" height="48" viewBox="0 0 48 48" fill="none" xmlns="http://www.w3.org/2000/svg">
<path d="M40 0C44.4183 5.15405e-07 48 3.58172 48 8V39.5C48 43.9183 44.4183 47.5 40 47.5H8C3.58172 47.5 1.8523e-07 43.9183 0 39.5V8C0 3.58172 3.58172 1.28851e-07 8 0H40Z" fill="#F7F7F7"/>
<path d="M40 0C44.4183 5.15405e-07 48 3.58172 48 8V39.5C48 43.9183 44.4183 47.5 40 47.5H8C3.58172 47.5 1.8523e-07 43.9183 0 39.5V8C0 3.58172 3.58172 1.28851e-07 8 0H40Z" stroke="white"/>
<path d="M24 15H21.0781C20.0195 15 19.0742 15.668 18.7227 16.6641L14.1211 29.6563C14.043 29.8828 14 30.125 14 30.3672C14 31.543 14.957 32.5 16.1328 32.5H24V30C24 29.3086 24.5586 28.75 25.25 28.75C25.9414 28.75 26.5 29.3086 26.5 30V32.5H34.3672C35.5469 32.5 36.5 31.543 36.5 30.3672C36.5 30.125 36.457 29.8828 36.3789 29.6563L31.7773 16.6641C31.4219 15.668 30.4805 15 29.4219 15H26.5V17.5C26.5 18.1914 25.9414 18.75 25.25 18.75C24.5586 18.75 24 18.1914 24 17.5V15ZM26.5 22.5V25C26.5 25.6914 25.9414 26.25 25.25 26.25C24.5586 26.25 24 25.6914 24 25V22.5C24 21.8086 24.5586 21.25 25.25 21.25C25.9414 21.25 26.5 21.8086 26.5 22.5Z" fill="#2563EB"/>
</svg>
