<svg width="24" height="24" viewBox="0 0 24 24" fill="none" xmlns="http://www.w3.org/2000/svg">
<path d="M20.5958 18.2288L16.2906 13.9231C16.9617 12.8214 17.3158 11.5558 17.3136 10.2657C17.3136 6.37252 13.9403 3 10.0474 3C9.12192 2.99985 8.20543 3.18205 7.35033 3.5362C6.49522 3.89035 5.71826 4.4095 5.06382 5.06401C4.40937 5.71852 3.89026 6.49556 3.53615 7.35074C3.18204 8.20593 2.99985 9.12251 3 10.0481C3 13.9402 6.37334 17.3139 10.265 17.3139C11.5125 17.315 12.7376 16.983 13.8138 16.3522L18.1419 20.683C18.3454 20.886 18.6211 21 18.9086 21C19.1961 21 19.4718 20.886 19.6753 20.683L20.7496 19.6085C21.1723 19.1858 21.0185 18.6515 20.5958 18.2288ZM5.16915 10.0481C5.1687 9.40725 5.29456 8.77258 5.53955 8.18039C5.78453 7.58821 6.14383 7.05012 6.5969 6.59691C7.04996 6.14369 7.58791 5.78423 8.17998 5.53909C8.77206 5.29394 9.40664 5.16791 10.0474 5.16821C12.7429 5.16821 15.1445 7.56886 15.1445 10.2657C15.1442 11.5599 14.63 12.8009 13.715 13.716C12.8 14.6311 11.5591 15.1453 10.265 15.1456C7.56956 15.1445 5.16915 12.7427 5.16915 10.0481Z" fill="black"/>
</svg>
