<svg width="16" height="16" viewBox="0 0 16 16" fill="none" xmlns="http://www.w3.org/2000/svg">
<path d="M8 0C12.4062 0 16 3.59375 16 8C16 12.4375 12.4062 16 8 16C3.5625 16 0 12.4375 0 8C0 3.59375 3.5625 0 8 0ZM11.9375 7.96875C12.3438 7.59375 12.3438 6.9375 11.9062 6.53125L8.6875 3.3125C8.4375 3.0625 8.125 3 8 3C7.84375 3 7.53125 3.0625 7.25 3.34375L4.03125 6.5625C3.625 6.9375 3.625 7.59375 4.03125 7.96875C4.40625 8.375 5.0625 8.375 5.4375 7.96875L7 6.4375V12C7 12.5625 7.4375 13 8 13C8.53125 13 9 12.5625 9 12V6.4375L10.5312 7.96875C10.9062 8.375 11.5625 8.375 11.9375 7.96875Z" fill="white"/>
</svg>
