<svg width="32" height="32" viewBox="0 0 32 32" fill="none" xmlns="http://www.w3.org/2000/svg">
<path fill-rule="evenodd" clip-rule="evenodd" d="M16 1.75797e-10C18.1011 -9.84899e-06 20.1817 0.413834 22.1229 1.2179C24.0641 2.02197 25.8279 3.20052 27.3137 4.68625C28.7994 6.17199 29.978 7.93581 30.7821 9.87702C31.5861 11.8182 32 13.8988 32 16C32 24.8365 24.8365 32 16 32C7.16347 32 0 24.8365 0 16C0 7.16347 7.16347 1.75797e-10 16 1.75797e-10ZM17.6 17.6H14.4C10.4389 17.6 7.03814 19.999 5.57137 23.4236C7.89217 26.6779 11.6983 28.8 16 28.8C20.3017 28.8 24.1078 26.6779 26.4286 23.4234C24.9619 19.999 21.5611 17.6 17.6 17.6ZM16 4.8C13.349 4.8 11.2 6.94905 11.2 9.59999C11.2 12.2509 13.349 14.4 16 14.4C18.6509 14.4 20.8 12.2509 20.8 9.59999C20.8 6.94905 18.651 4.8 16 4.8Z" fill="black"/>
</svg>
